<svg width="43" height="56" viewBox="0 0 43 56" fill="none" xmlns="http://www.w3.org/2000/svg">
<path d="M19 30L19 32.5L24 32.5L24 30L19 30ZM23.2678 1.23223C22.2915 0.25592 20.7085 0.25592 19.7322 1.23223L3.82233 17.1421C2.84602 18.1184 2.84602 19.7014 3.82233 20.6777C4.79864 21.654 6.38155 21.654 7.35786 20.6777L21.5 6.53553L35.6421 20.6777C36.6184 21.654 38.2014 21.654 39.1777 20.6777C40.154 19.7014 40.154 18.1184 39.1777 17.1421L23.2678 1.23223ZM24 30L24 3L19 3L19 30L24 30Z" fill="url(#paint0_linear_7_1107)"/>
<path d="M8.95898 50.5273C8.95898 50.8281 8.91992 51.0996 8.8418 51.3418C8.76758 51.5801 8.66797 51.791 8.54297 51.9746C8.41797 52.1582 8.27148 52.3145 8.10352 52.4434C7.93555 52.5723 7.76172 52.6777 7.58203 52.7598C7.40234 52.8418 7.21875 52.9023 7.03125 52.9414C6.84766 52.9805 6.67383 53 6.50977 53H0.632812V51.4766H6.50977C6.80273 51.4766 7.0293 51.3906 7.18945 51.2188C7.35352 51.0469 7.43555 50.8164 7.43555 50.5273C7.43555 50.3867 7.41406 50.2578 7.37109 50.1406C7.32812 50.0234 7.26562 49.9219 7.18359 49.8359C7.10547 49.75 7.00781 49.6836 6.89062 49.6367C6.77734 49.5898 6.65039 49.5664 6.50977 49.5664H3.00586C2.75977 49.5664 2.49414 49.5234 2.20898 49.4375C1.92383 49.3477 1.6582 49.2051 1.41211 49.0098C1.16992 48.8145 0.966797 48.5586 0.802734 48.2422C0.642578 47.9258 0.5625 47.5391 0.5625 47.082C0.5625 46.625 0.642578 46.2402 0.802734 45.9277C0.966797 45.6113 1.16992 45.3555 1.41211 45.1602C1.6582 44.9609 1.92383 44.8184 2.20898 44.7324C2.49414 44.6426 2.75977 44.5977 3.00586 44.5977H8.19141V46.1211H3.00586C2.7168 46.1211 2.49023 46.209 2.32617 46.3848C2.16602 46.5605 2.08594 46.793 2.08594 47.082C2.08594 47.375 2.16602 47.6074 2.32617 47.7793C2.49023 47.9473 2.7168 48.0312 3.00586 48.0312H6.50977H6.52148C6.68555 48.0352 6.85938 48.0586 7.04297 48.1016C7.22656 48.1406 7.4082 48.2031 7.58789 48.2891C7.77148 48.375 7.94531 48.4844 8.10938 48.6172C8.27344 48.7461 8.41797 48.9023 8.54297 49.0859C8.67188 49.2695 8.77344 49.4805 8.84766 49.7188C8.92188 49.957 8.95898 50.2266 8.95898 50.5273ZM18.457 52.2324C18.457 52.3418 18.4375 52.4434 18.3984 52.5371C18.3594 52.6309 18.3047 52.7129 18.2344 52.7832C18.1641 52.8496 18.082 52.9023 17.9883 52.9414C17.8945 52.9805 17.7949 53 17.6895 53H14.2559C13.9316 53 13.6035 52.9648 13.2715 52.8945C12.9395 52.8242 12.6172 52.7168 12.3047 52.5723C11.9961 52.4238 11.7051 52.2363 11.4316 52.0098C11.1582 51.7832 10.918 51.5156 10.7109 51.207C10.5078 50.8945 10.3477 50.5391 10.2305 50.1406C10.1133 49.7383 10.0547 49.291 10.0547 48.7988V44.5977H11.5781V48.7988C11.5781 49.2285 11.6367 49.5918 11.7539 49.8887C11.875 50.1855 12.0273 50.4336 12.2109 50.6328C12.3945 50.832 12.5957 50.9883 12.8145 51.1016C13.0332 51.2148 13.2402 51.2988 13.4355 51.3535C13.6348 51.4082 13.8086 51.4434 13.957 51.459C14.1094 51.4707 14.209 51.4766 14.2559 51.4766H16.9336V44.5977H18.457V52.2324ZM28.6172 51.1543C28.6172 51.3418 28.584 51.543 28.5176 51.7578C28.4551 51.9727 28.3496 52.1719 28.2012 52.3555C28.0566 52.5391 27.8672 52.6934 27.6328 52.8184C27.3984 52.9395 27.1113 53 26.7715 53H20.9883C20.8789 53 20.7773 52.9805 20.6836 52.9414C20.5898 52.9023 20.5078 52.8496 20.4375 52.7832C20.3711 52.7129 20.3184 52.6309 20.2793 52.5371C20.2402 52.4434 20.2207 52.3418 20.2207 52.2324V45.3652C20.2207 45.2598 20.2402 45.1602 20.2793 45.0664C20.3184 44.9727 20.3711 44.8906 20.4375 44.8203C20.5078 44.75 20.5898 44.6953 20.6836 44.6562C20.7773 44.6172 20.8789 44.5977 20.9883 44.5977H26.0859C26.2734 44.5977 26.4746 44.6309 26.6895 44.6973C26.9043 44.7637 27.1035 44.8711 27.2871 45.0195C27.4746 45.1641 27.6289 45.3535 27.75 45.5879C27.875 45.8223 27.9375 46.1094 27.9375 46.4492V46.7363C27.9375 47.0059 27.8926 47.2969 27.8027 47.6094C27.7129 47.918 27.5684 48.2109 27.3691 48.4883C27.541 48.5938 27.7012 48.7207 27.8496 48.8691C28.002 49.0176 28.1348 49.1895 28.248 49.3848C28.3613 49.5801 28.4512 49.8008 28.5176 50.0469C28.584 50.293 28.6172 50.5645 28.6172 50.8613V51.1543ZM27.0938 50.8613C27.0938 50.6621 27.0625 50.4844 27 50.3281C26.9375 50.168 26.8496 50.0312 26.7363 49.918C26.623 49.8047 26.4863 49.7188 26.3262 49.6602C26.166 49.5977 25.9863 49.5664 25.7871 49.5664H22.3535V48.0312H25.1016C25.3008 48.0312 25.4805 48.002 25.6406 47.9434C25.8008 47.8809 25.9375 47.793 26.0508 47.6797C26.1641 47.5664 26.25 47.4316 26.3086 47.2754C26.3711 47.1152 26.4023 46.9355 26.4023 46.7363V46.4492C26.4023 46.2305 26.2969 46.1211 26.0859 46.1211H21.7441V51.4766H26.7715C26.7988 51.4766 26.832 51.4746 26.8711 51.4707C26.9102 51.4668 26.9453 51.4551 26.9766 51.4355C27.0078 51.416 27.0352 51.3828 27.0586 51.3359C27.082 51.2891 27.0938 51.2246 27.0938 51.1426V50.8613ZM31.4824 53H29.959V44.5977H31.4824V53ZM41.6602 47.4219C41.6602 47.7695 41.6172 48.0801 41.5312 48.3535C41.4453 48.627 41.3281 48.8691 41.1797 49.0801C41.0352 49.2871 40.8672 49.4648 40.6758 49.6133C40.4844 49.7617 40.2832 49.8848 40.0723 49.9824C39.8652 50.0762 39.6543 50.1445 39.4395 50.1875C39.2285 50.2305 39.0293 50.252 38.8418 50.252L42.0234 53H39.668L36.4922 50.252H35.3965V48.7285H38.8418C39.0332 48.7129 39.207 48.6738 39.3633 48.6113C39.5234 48.5449 39.6602 48.457 39.7734 48.3477C39.8906 48.2383 39.9805 48.1074 40.043 47.9551C40.1055 47.7988 40.1367 47.6211 40.1367 47.4219V46.4609C40.1367 46.375 40.125 46.3105 40.1016 46.2676C40.082 46.2207 40.0547 46.1875 40.0195 46.168C39.9883 46.1445 39.9531 46.1309 39.9141 46.127C39.8789 46.123 39.8457 46.1211 39.8145 46.1211H34.7871V53H33.2637V45.3652C33.2637 45.2598 33.2832 45.1602 33.3223 45.0664C33.3613 44.9727 33.4141 44.8906 33.4805 44.8203C33.5508 44.75 33.6328 44.6953 33.7266 44.6562C33.8203 44.6172 33.9219 44.5977 34.0312 44.5977H39.8145C40.1543 44.5977 40.4414 44.6602 40.6758 44.7852C40.9102 44.9062 41.0996 45.0605 41.2441 45.248C41.3926 45.4316 41.498 45.6309 41.5605 45.8457C41.627 46.0605 41.6602 46.2617 41.6602 46.4492V47.4219Z" fill="#10ABFE"/>
<defs>
<linearGradient id="paint0_linear_7_1107" x1="21" y1="34.5" x2="21" y2="3" gradientUnits="userSpaceOnUse">
<stop offset="0.140625" stop-color="#10ABFE"/>
<stop offset="1" stop-color="#02679D"/>
</linearGradient>
</defs>
</svg>
