<svg width="292" height="155" viewBox="0 0 292 155" fill="none" xmlns="http://www.w3.org/2000/svg">
<rect width="292" height="154" transform="translate(0 0.5)" fill="#FE9E62"/>
<path d="M35.03 47.3C33.43 47.3 32.21 46.85 31.37 45.95C30.53 45.03 30.11 43.72 30.11 42.02V26H33.41V42.26C33.41 42.98 33.55 43.5 33.83 43.82C34.13 44.14 34.55 44.3 35.09 44.3C35.63 44.3 36.04 44.14 36.32 43.82C36.62 43.5 36.77 42.98 36.77 42.26V26H39.95V42.02C39.95 43.72 39.53 45.03 38.69 45.95C37.85 46.85 36.63 47.3 35.03 47.3ZM42.3003 26H47.0103L49.1103 41.03H49.1703L51.2703 26H55.9803V47H52.8603V31.1H52.8003L50.4003 47H47.6403L45.2403 31.1H45.1803V47H42.3003V26ZM65.8276 29H62.3776V26H72.5776V29H69.1276V47H65.8276V29ZM74.1753 26H77.4753V47H74.1753V26ZM76.1253 21.14H79.7253L76.5153 24.59H74.0253L76.1253 21.14ZM82.5268 29H79.0768V26H89.2768V29H85.8268V47H82.5268V29ZM95.6745 47.3C94.0745 47.3 92.8545 46.85 92.0145 45.95C91.1745 45.03 90.7545 43.72 90.7545 42.02V26H94.0545V42.26C94.0545 42.98 94.1945 43.5 94.4745 43.82C94.7745 44.14 95.1945 44.3 95.7345 44.3C96.2745 44.3 96.6845 44.14 96.9645 43.82C97.2645 43.5 97.4145 42.98 97.4145 42.26V26H100.595V42.02C100.595 43.72 100.175 45.03 99.3345 45.95C98.4945 46.85 97.2745 47.3 95.6745 47.3ZM102.945 26H106.245V44H111.675V47H102.945V26ZM117.91 47.3C116.29 47.3 115.05 46.84 114.19 45.92C113.33 45 112.9 43.7 112.9 42.02V30.98C112.9 29.3 113.33 28 114.19 27.08C115.05 26.16 116.29 25.7 117.91 25.7C119.53 25.7 120.77 26.16 121.63 27.08C122.49 28 122.92 29.3 122.92 30.98V42.02C122.92 43.7 122.49 45 121.63 45.92C120.77 46.84 119.53 47.3 117.91 47.3ZM117.91 44.3C119.05 44.3 119.62 43.61 119.62 42.23V30.77C119.62 29.39 119.05 28.7 117.91 28.7C116.77 28.7 116.2 29.39 116.2 30.77V42.23C116.2 43.61 116.77 44.3 117.91 44.3ZM129.957 26H134.817C136.457 26 137.687 26.44 138.507 27.32C139.327 28.2 139.737 29.49 139.737 31.19V33.26C139.737 34.96 139.327 36.25 138.507 37.13C137.687 38.01 136.457 38.45 134.817 38.45H133.257V47H129.957V26ZM134.817 35.45C135.357 35.45 135.757 35.3 136.017 35C136.297 34.7 136.437 34.19 136.437 33.47V30.98C136.437 30.26 136.297 29.75 136.017 29.45C135.757 29.15 135.357 29 134.817 29H133.257V35.45H134.817ZM143.024 26H147.494L150.914 47H147.614L147.014 42.83V42.89H143.264L142.664 47H139.604L143.024 26ZM146.624 40.04L145.154 29.66H145.094L143.654 40.04H146.624ZM152.515 26H157.405C159.105 26 160.345 26.4 161.125 27.2C161.905 27.98 162.295 29.19 162.295 30.83V32.12C162.295 34.3 161.575 35.68 160.135 36.26V36.32C160.935 36.56 161.495 37.05 161.815 37.79C162.155 38.53 162.325 39.52 162.325 40.76V44.45C162.325 45.05 162.345 45.54 162.385 45.92C162.425 46.28 162.525 46.64 162.685 47H159.325C159.205 46.66 159.125 46.34 159.085 46.04C159.045 45.74 159.025 45.2 159.025 44.42V40.58C159.025 39.62 158.865 38.95 158.545 38.57C158.245 38.19 157.715 38 156.955 38H155.815V47H152.515V26ZM157.015 35C157.675 35 158.165 34.83 158.485 34.49C158.825 34.15 158.995 33.58 158.995 32.78V31.16C158.995 30.4 158.855 29.85 158.575 29.51C158.315 29.17 157.895 29 157.315 29H155.815V35H157.015ZM167.165 26H171.635L175.055 47H171.755L171.155 42.83V42.89H167.405L166.805 47H163.745L167.165 26ZM170.765 40.04L169.295 29.66H169.235L167.795 40.04H170.765ZM35 83.3C33.38 83.3 32.14 82.84 31.28 81.92C30.42 81 29.99 79.7 29.99 78.02V66.98C29.99 65.3 30.42 64 31.28 63.08C32.14 62.16 33.38 61.7 35 61.7C36.62 61.7 37.86 62.16 38.72 63.08C39.58 64 40.01 65.3 40.01 66.98V78.02C40.01 79.7 39.58 81 38.72 81.92C37.86 82.84 36.62 83.3 35 83.3ZM35 80.3C36.14 80.3 36.71 79.61 36.71 78.23V66.77C36.71 65.39 36.14 64.7 35 64.7C33.86 64.7 33.29 65.39 33.29 66.77V78.23C33.29 79.61 33.86 80.3 35 80.3ZM47.0464 62H51.9064C53.5464 62 54.7764 62.44 55.5964 63.32C56.4164 64.2 56.8264 65.49 56.8264 67.19V69.26C56.8264 70.96 56.4164 72.25 55.5964 73.13C54.7764 74.01 53.5464 74.45 51.9064 74.45H50.3464V83H47.0464V62ZM51.9064 71.45C52.4464 71.45 52.8464 71.3 53.1064 71C53.3864 70.7 53.5264 70.19 53.5264 69.47V66.98C53.5264 66.26 53.3864 65.75 53.1064 65.45C52.8464 65.15 52.4464 65 51.9064 65H50.3464V71.45H51.9064ZM58.6187 62H63.5087C65.2087 62 66.4487 62.4 67.2287 63.2C68.0087 63.98 68.3987 65.19 68.3987 66.83V68.12C68.3987 70.3 67.6787 71.68 66.2387 72.26V72.32C67.0387 72.56 67.5987 73.05 67.9187 73.79C68.2587 74.53 68.4287 75.52 68.4287 76.76V80.45C68.4287 81.05 68.4487 81.54 68.4887 81.92C68.5287 82.28 68.6287 82.64 68.7887 83H65.4287C65.3087 82.66 65.2287 82.34 65.1887 82.04C65.1487 81.74 65.1287 81.2 65.1287 80.42V76.58C65.1287 75.62 64.9687 74.95 64.6487 74.57C64.3487 74.19 63.8187 74 63.0587 74H61.9187V83H58.6187V62ZM63.1187 71C63.7787 71 64.2687 70.83 64.5887 70.49C64.9287 70.15 65.0987 69.58 65.0987 68.78V67.16C65.0987 66.4 64.9587 65.85 64.6787 65.51C64.4187 65.17 63.9987 65 63.4187 65H61.9187V71H63.1187ZM75.4883 83.3C73.8683 83.3 72.6283 82.84 71.7683 81.92C70.9083 81 70.4783 79.7 70.4783 78.02V66.98C70.4783 65.3 70.9083 64 71.7683 63.08C72.6283 62.16 73.8683 61.7 75.4883 61.7C77.1083 61.7 78.3483 62.16 79.2083 63.08C80.0683 64 80.4983 65.3 80.4983 66.98V78.02C80.4983 79.7 80.0683 81 79.2083 81.92C78.3483 82.84 77.1083 83.3 75.4883 83.3ZM75.4883 80.3C76.6283 80.3 77.1983 79.61 77.1983 78.23V66.77C77.1983 65.39 76.6283 64.7 75.4883 64.7C74.3483 64.7 73.7783 65.39 73.7783 66.77V78.23C73.7783 79.61 74.3483 80.3 75.4883 80.3ZM83.51 83.12C82.91 83.12 82.4 83.08 81.98 83V80C82.3 80.08 82.66 80.12 83.06 80.12C83.72 80.12 84.21 79.96 84.53 79.64C84.85 79.3 85.01 78.79 85.01 78.11V62H88.31V78.02C88.31 79.74 87.91 81.02 87.11 81.86C86.33 82.7 85.13 83.12 83.51 83.12ZM90.6695 62H99.6695V65H93.9695V70.55H98.4995V73.55H93.9695V80H99.6695V83H90.6695V62ZM104.148 65H100.698V62H110.898V65H107.448V83H104.148V65ZM117.148 83.3C115.528 83.3 114.288 82.84 113.428 81.92C112.568 81 112.138 79.7 112.138 78.02V66.98C112.138 65.3 112.568 64 113.428 63.08C114.288 62.16 115.528 61.7 117.148 61.7C118.768 61.7 120.008 62.16 120.868 63.08C121.728 64 122.158 65.3 122.158 66.98V78.02C122.158 79.7 121.728 81 120.868 81.92C120.008 82.84 118.768 83.3 117.148 83.3ZM117.148 80.3C118.288 80.3 118.858 79.61 118.858 78.23V66.77C118.858 65.39 118.288 64.7 117.148 64.7C116.008 64.7 115.438 65.39 115.438 66.77V78.23C115.438 79.61 116.008 80.3 117.148 80.3Z" fill="#212121"/>
<rect width="81" height="27" transform="translate(29 108)" fill="black"/>
<path d="M35.2734 127V115.625H42.4141V117.047H37.0547V120.703H41.6875V122.109H37.0547V127H35.2734ZM43.75 127V118.82H45.3594L45.4141 119.828H45.4531C45.651 119.495 45.9115 119.206 46.2344 118.961C46.5573 118.716 46.9349 118.594 47.3672 118.594C47.4818 118.594 47.599 118.607 47.7188 118.633C47.8385 118.659 47.9245 118.682 47.9766 118.703V120.25C47.8776 120.229 47.7708 120.214 47.6562 120.203C47.5469 120.188 47.4245 120.18 47.2891 120.18C46.862 120.18 46.4922 120.297 46.1797 120.531C45.8672 120.766 45.6354 121.06 45.4844 121.414V127H43.75ZM48.6719 123.031V122.781C48.6719 121.531 49.0339 120.521 49.7578 119.75C50.4818 118.974 51.4427 118.586 52.6406 118.586C53.8385 118.586 54.7995 118.974 55.5234 119.75C56.2526 120.521 56.6172 121.531 56.6172 122.781V123.031C56.6172 124.286 56.2526 125.302 55.5234 126.078C54.7995 126.849 53.8385 127.234 52.6406 127.234C51.4427 127.234 50.4818 126.849 49.7578 126.078C49.0339 125.302 48.6719 124.286 48.6719 123.031ZM50.4375 122.742V123.078C50.4375 123.896 50.6224 124.565 50.9922 125.086C51.3672 125.607 51.9167 125.867 52.6406 125.867C53.3646 125.867 53.9141 125.607 54.2891 125.086C54.6641 124.565 54.8516 123.896 54.8516 123.078V122.742C54.8516 121.924 54.6641 121.258 54.2891 120.742C53.9141 120.221 53.3646 119.961 52.6406 119.961C51.9219 119.961 51.375 120.221 51 120.742C50.625 121.258 50.4375 121.924 50.4375 122.742ZM58.3438 127V118.82H59.9453L60 119.836H60.0469C60.3125 119.477 60.6589 119.193 61.0859 118.984C61.513 118.771 61.9844 118.664 62.5 118.664C63.3281 118.664 63.9922 118.901 64.4922 119.375C64.9974 119.844 65.25 120.641 65.25 121.766V127H63.5156V121.742C63.5156 121.138 63.3802 120.708 63.1094 120.453C62.8438 120.193 62.4635 120.062 61.9688 120.062C61.5521 120.062 61.1771 120.177 60.8438 120.406C60.5104 120.635 60.2552 120.938 60.0781 121.312V127H58.3438ZM66.2656 120.117V118.82H71.0625V120.117H66.2656ZM67.6484 124.836V119.547V119.32V116.789H69.375V124.805C69.375 125.185 69.4453 125.451 69.5859 125.602C69.7318 125.753 69.9505 125.828 70.2422 125.828C70.3828 125.828 70.5182 125.812 70.6484 125.781C70.7839 125.75 70.9167 125.711 71.0469 125.664V127C70.9167 127.057 70.7422 127.109 70.5234 127.156C70.3047 127.203 70.0651 127.227 69.8047 127.227C69.1536 127.227 68.6302 127.036 68.2344 126.656C67.8438 126.271 67.6484 125.664 67.6484 124.836ZM71.9531 122.844V121.305H76.375V122.844H71.9531ZM77.7969 123.031V122.781C77.7969 121.542 78.1484 120.534 78.8516 119.758C79.5547 118.977 80.4766 118.586 81.6172 118.586C82.7578 118.586 83.6406 118.951 84.2656 119.68C84.8906 120.404 85.2031 121.393 85.2031 122.648V123.312H78.8984V122.07H83.4766V121.891C83.4818 121.349 83.3255 120.888 83.0078 120.508C82.6953 120.122 82.2422 119.93 81.6484 119.93C80.9453 119.93 80.4167 120.195 80.0625 120.727C79.7135 121.258 79.5391 121.93 79.5391 122.742V123.07C79.5391 123.883 79.7266 124.555 80.1016 125.086C80.4766 125.617 81.0469 125.883 81.8125 125.883C82.3073 125.883 82.7318 125.771 83.0859 125.547C83.4401 125.323 83.7266 125.06 83.9453 124.758L85.1172 125.594C84.8568 126.021 84.4427 126.401 83.875 126.734C83.3125 127.068 82.6302 127.234 81.8281 127.234C80.5417 127.234 79.5469 126.846 78.8438 126.07C78.1458 125.289 77.7969 124.276 77.7969 123.031ZM86.8594 127V118.82H88.4609L88.5156 119.836H88.5625C88.8281 119.477 89.1745 119.193 89.6016 118.984C90.0286 118.771 90.5 118.664 91.0156 118.664C91.8438 118.664 92.5078 118.901 93.0078 119.375C93.513 119.844 93.7656 120.641 93.7656 121.766V127H92.0312V121.742C92.0312 121.138 91.8958 120.708 91.625 120.453C91.3594 120.193 90.9792 120.062 90.4844 120.062C90.0677 120.062 89.6927 120.177 89.3594 120.406C89.026 120.635 88.7708 120.938 88.5938 121.312V127H86.8594ZM95.4062 123.039V122.789C95.4062 121.586 95.7214 120.599 96.3516 119.828C96.987 119.052 97.8255 118.664 98.8672 118.664C99.4193 118.664 99.8906 118.763 100.281 118.961C100.677 119.159 100.99 119.419 101.219 119.742V115.039H102.945V127H101.344L101.289 125.969H101.242C101.044 126.302 100.737 126.583 100.32 126.812C99.9036 127.042 99.4193 127.156 98.8672 127.156C97.8047 127.156 96.9609 126.771 96.3359 126C95.7161 125.224 95.4062 124.237 95.4062 123.039ZM97.1719 123.07C97.1719 123.852 97.3411 124.5 97.6797 125.016C98.0182 125.531 98.5443 125.789 99.2578 125.789C99.737 125.789 100.143 125.659 100.477 125.398C100.815 125.133 101.06 124.831 101.211 124.492V121.328C101.065 120.984 100.826 120.682 100.492 120.422C100.159 120.161 99.7474 120.031 99.2578 120.031C98.5495 120.031 98.0234 120.289 97.6797 120.805C97.3411 121.32 97.1719 121.969 97.1719 122.75V123.07Z" fill="white"/>
<rect width="78" height="27" transform="translate(126 108)" fill="black"/>
<path d="M132.273 127V115.625H136.164C137.341 115.625 138.263 115.867 138.93 116.352C139.602 116.836 139.938 117.596 139.938 118.633C139.938 119.258 139.784 119.768 139.477 120.164C139.174 120.56 138.797 120.839 138.344 121V121.031C138.896 121.193 139.349 121.5 139.703 121.953C140.062 122.401 140.242 122.992 140.242 123.727C140.242 124.763 139.891 125.568 139.188 126.141C138.484 126.714 137.555 127 136.398 127H132.273ZM134.031 125.625H136.367C137.091 125.625 137.622 125.451 137.961 125.102C138.299 124.747 138.469 124.273 138.469 123.68C138.469 123.091 138.299 122.622 137.961 122.273C137.622 121.924 137.091 121.75 136.367 121.75H134.031V125.625ZM134.031 120.422H136.141C136.865 120.422 137.385 120.271 137.703 119.969C138.021 119.661 138.18 119.237 138.18 118.695C138.18 118.154 138.021 117.737 137.703 117.445C137.385 117.154 136.865 117.008 136.141 117.008H134.031V120.422ZM141.641 124.594C141.641 123.74 141.977 123.083 142.648 122.625C143.32 122.161 144.174 121.93 145.211 121.93H146.977V121.391C146.977 120.943 146.859 120.578 146.625 120.297C146.396 120.016 145.992 119.875 145.414 119.875C144.841 119.875 144.432 119.992 144.188 120.227C143.943 120.461 143.82 120.737 143.82 121.055V121.125H142.109V121.047C142.109 120.37 142.414 119.792 143.023 119.312C143.638 118.833 144.456 118.594 145.477 118.594C146.497 118.594 147.292 118.826 147.859 119.289C148.427 119.753 148.711 120.456 148.711 121.398V125.141C148.711 125.474 148.737 125.792 148.789 126.094C148.846 126.391 148.922 126.651 149.016 126.875V127H147.328C147.26 126.875 147.198 126.711 147.141 126.508C147.089 126.299 147.052 126.096 147.031 125.898C146.854 126.227 146.547 126.518 146.109 126.773C145.672 127.029 145.117 127.156 144.445 127.156C143.659 127.156 142.995 126.94 142.453 126.508C141.911 126.07 141.641 125.432 141.641 124.594ZM143.375 124.477C143.375 124.909 143.5 125.25 143.75 125.5C144 125.745 144.388 125.867 144.914 125.867C145.461 125.867 145.94 125.685 146.352 125.32C146.768 124.956 146.977 124.555 146.977 124.117V123.078H145.43C144.747 123.078 144.234 123.203 143.891 123.453C143.547 123.698 143.375 124.039 143.375 124.477ZM150.422 123.031V122.781C150.422 121.531 150.771 120.521 151.469 119.75C152.167 118.974 153.117 118.586 154.32 118.586C155.44 118.586 156.292 118.88 156.875 119.469C157.464 120.057 157.766 120.732 157.781 121.492V121.57H156.102V121.508C156.102 121.081 155.958 120.714 155.672 120.406C155.385 120.099 154.932 119.945 154.312 119.945C153.594 119.945 153.06 120.211 152.711 120.742C152.362 121.268 152.188 121.935 152.188 122.742V123.078C152.188 123.885 152.359 124.555 152.703 125.086C153.052 125.612 153.589 125.875 154.312 125.875C154.948 125.875 155.404 125.719 155.68 125.406C155.961 125.089 156.102 124.721 156.102 124.305V124.25H157.781V124.312C157.781 125.073 157.484 125.75 156.891 126.344C156.302 126.938 155.445 127.234 154.32 127.234C153.122 127.234 152.172 126.849 151.469 126.078C150.771 125.302 150.422 124.286 150.422 123.031ZM159.359 127V115.039H161.094V122.297L164.32 118.82H166.258L161.094 124.32V127H159.359ZM164.594 127L161.531 122.898L162.625 121.695L166.625 127H164.594ZM166.625 122.844V121.305H171.047V122.844H166.625ZM172.469 123.031V122.781C172.469 121.542 172.82 120.534 173.523 119.758C174.227 118.977 175.148 118.586 176.289 118.586C177.43 118.586 178.312 118.951 178.938 119.68C179.562 120.404 179.875 121.393 179.875 122.648V123.312H173.57V122.07H178.148V121.891C178.154 121.349 177.997 120.888 177.68 120.508C177.367 120.122 176.914 119.93 176.32 119.93C175.617 119.93 175.089 120.195 174.734 120.727C174.385 121.258 174.211 121.93 174.211 122.742V123.07C174.211 123.883 174.398 124.555 174.773 125.086C175.148 125.617 175.719 125.883 176.484 125.883C176.979 125.883 177.404 125.771 177.758 125.547C178.112 125.323 178.398 125.06 178.617 124.758L179.789 125.594C179.529 126.021 179.115 126.401 178.547 126.734C177.984 127.068 177.302 127.234 176.5 127.234C175.214 127.234 174.219 126.846 173.516 126.07C172.818 125.289 172.469 124.276 172.469 123.031ZM181.531 127V118.82H183.133L183.188 119.836H183.234C183.5 119.477 183.846 119.193 184.273 118.984C184.701 118.771 185.172 118.664 185.688 118.664C186.516 118.664 187.18 118.901 187.68 119.375C188.185 119.844 188.438 120.641 188.438 121.766V127H186.703V121.742C186.703 121.138 186.568 120.708 186.297 120.453C186.031 120.193 185.651 120.062 185.156 120.062C184.74 120.062 184.365 120.177 184.031 120.406C183.698 120.635 183.443 120.938 183.266 121.312V127H181.531ZM190.078 123.039V122.789C190.078 121.586 190.393 120.599 191.023 119.828C191.659 119.052 192.497 118.664 193.539 118.664C194.091 118.664 194.562 118.763 194.953 118.961C195.349 119.159 195.661 119.419 195.891 119.742V115.039H197.617V127H196.016L195.961 125.969H195.914C195.716 126.302 195.409 126.583 194.992 126.812C194.576 127.042 194.091 127.156 193.539 127.156C192.477 127.156 191.633 126.771 191.008 126C190.388 125.224 190.078 124.237 190.078 123.039ZM191.844 123.07C191.844 123.852 192.013 124.5 192.352 125.016C192.69 125.531 193.216 125.789 193.93 125.789C194.409 125.789 194.815 125.659 195.148 125.398C195.487 125.133 195.732 124.831 195.883 124.492V121.328C195.737 120.984 195.497 120.682 195.164 120.422C194.831 120.161 194.419 120.031 193.93 120.031C193.221 120.031 192.695 120.289 192.352 120.805C192.013 121.32 191.844 121.969 191.844 122.75V123.07Z" fill="white"/>
</svg>
