<svg width="41" height="46" viewBox="0 0 41 46" fill="none" xmlns="http://www.w3.org/2000/svg">
<g clip-path="url(#clip0_7_1093)">
<path d="M37.8098 41.0607L41.5447 0H0L0.0488095 0.532833L3.72905 41.0665L3.76029 41.4038L20.6152 46H20.8807L37.7747 41.4L37.8059 41.0627L37.8098 41.0607ZM20.8085 8.96808H32.88L32.5169 13.1081L20.6074 18.3061L20.8065 19.2414H31.982L30.6953 33.7142L20.7655 36.4167L10.8396 33.718L10.2149 26.7873H14.3012L14.6292 30.3006L14.6604 30.6418L20.6835 32.2134H20.9432L26.8999 30.5881L26.9292 30.2488L27.4915 23.759L27.5364 23.23H9.87319L9.50224 19.0651L21.8198 13.8882L21.6246 12.949H8.97314L8.61195 8.96233H20.7948L20.8085 8.96808Z" fill="#10ABFE"/>
</g>
<defs>
<clipPath id="clip0_7_1093">
<rect width="41" height="46" fill="white"/>
</clipPath>
</defs>
</svg>
