<svg width="108" height="51" viewBox="0 0 108 51" fill="none" xmlns="http://www.w3.org/2000/svg">
<path d="M49.6758 45.5225C49.6758 46.1605 49.5618 46.7529 49.334 47.2998C49.1061 47.8467 48.7871 48.3252 48.377 48.7354C47.9896 49.1227 47.5225 49.4303 46.9756 49.6582C46.4287 49.8861 45.8363 50 45.1982 50H13.1377C12.3174 50 11.4287 49.9089 10.4717 49.7266C9.53743 49.5215 8.60319 49.2139 7.66895 48.8037C6.75749 48.3936 5.88021 47.8695 5.03711 47.2314C4.19401 46.5706 3.44206 45.7845 2.78125 44.873C2.14323 43.9388 1.63053 42.8678 1.24316 41.6602C0.855794 40.4297 0.662109 39.0511 0.662109 37.5244V13.4619C0.662109 12.6416 0.753255 11.7643 0.935547 10.8301C1.14062 9.87305 1.44824 8.9388 1.8584 8.02734C2.26855 7.0931 2.80404 6.20443 3.46484 5.36133C4.12565 4.51823 4.91178 3.77767 5.82324 3.13965C6.75749 2.47884 7.82845 1.95475 9.03613 1.56738C10.2438 1.18001 11.611 0.986328 13.1377 0.986328H49.2656V9.87305H13.1377C11.9756 9.87305 11.0869 10.1807 10.4717 10.7959C9.85645 11.4111 9.54883 12.3226 9.54883 13.5303V37.5244C9.54883 38.6637 9.85645 39.5524 10.4717 40.1904C11.1097 40.8057 11.9984 41.1133 13.1377 41.1133H40.7891V29.9707H17.1367V21.0156H45.1982C45.8363 21.0156 46.4287 21.141 46.9756 21.3916C47.5225 21.6195 47.9896 21.9385 48.377 22.3486C48.7871 22.7588 49.1061 23.2373 49.334 23.7842C49.5618 24.3083 49.6758 24.8779 49.6758 25.4932V45.5225ZM107.986 0.986328L84.7783 48.2568C84.4137 48.986 83.8669 49.5671 83.1377 50C82.4313 50.4557 81.6452 50.6836 80.7793 50.6836C79.9362 50.6836 79.1501 50.4557 78.4209 50C77.7145 49.5671 77.1676 48.986 76.7803 48.2568L53.6064 0.986328H63.5527L80.7793 36.2939L98.0742 0.986328H107.986Z" fill="#E8E8E8"/>
</svg>
