<svg width="46" height="46" viewBox="0 0 46 46" fill="none" xmlns="http://www.w3.org/2000/svg">
<g clip-path="url(#clip0_7_1095)">
<path fill-rule="evenodd" clip-rule="evenodd" d="M0 0H46V46H0V0ZM35.1651 38.5633C33.0318 38.5633 31.8262 37.4517 30.9005 35.9375L27.3872 37.9788C28.6561 40.4857 31.2493 42.3986 35.2648 42.3986C39.3703 42.3986 42.4273 40.2673 42.4273 36.3745C42.4273 32.7654 40.3535 31.1612 36.6812 29.5837L35.6002 29.1218C33.7448 28.3168 32.9417 27.7936 32.9417 26.496C32.9417 25.4476 33.7467 24.6445 35.0117 24.6445C36.2518 24.6445 37.0511 25.1677 37.7928 26.496L41.1585 24.3359C39.7344 21.8308 37.7603 20.8744 35.0117 20.8744C31.1516 20.8744 28.681 23.3431 28.681 26.5861C28.681 30.1032 30.751 31.7687 33.8713 33.097L34.9523 33.5608C36.9246 34.4233 38.0995 34.9485 38.0995 36.4301C38.0995 37.6683 36.9552 38.5633 35.1651 38.5633ZM18.4134 38.5346C16.928 38.5346 16.3089 37.5187 15.6304 36.3112L12.1114 38.4426C13.1311 40.6007 15.1359 42.3909 18.5955 42.3909C22.4269 42.3909 25.0508 40.3535 25.0508 35.8781V21.1197H20.7287V35.8206C20.7287 37.9807 19.8317 38.5346 18.4115 38.5346H18.4134Z" fill="#10ABFE"/>
</g>
<defs>
<clipPath id="clip0_7_1095">
<rect width="46" height="46" fill="white"/>
</clipPath>
</defs>
</svg>
