<svg width="42" height="42" viewBox="0 0 42 42" fill="none" xmlns="http://www.w3.org/2000/svg">
<g clip-path="url(#clip0_7_1105)">
<path fill-rule="evenodd" clip-rule="evenodd" d="M-0.276367 3.27878C-0.276367 2.33591 0.0981852 1.43166 0.764892 0.764957C1.4316 0.0982504 2.33585 -0.276301 3.27871 -0.276301H38.7173C39.1846 -0.277065 39.6474 -0.185659 40.0793 -0.00731716C40.5112 0.171024 40.9036 0.432799 41.2342 0.76302C41.5648 1.09324 41.827 1.48542 42.0058 1.91711C42.1846 2.3488 42.2765 2.81152 42.2763 3.27878V38.7174C42.2768 39.1847 42.1851 39.6476 42.0066 40.0795C41.828 40.5114 41.5661 40.9038 41.2357 41.2344C40.9053 41.5649 40.513 41.8271 40.0812 42.0059C39.6494 42.1847 39.1866 42.2766 38.7192 42.2763H3.27871C2.81169 42.2763 2.34924 42.1843 1.9178 42.0055C1.48635 41.8267 1.09435 41.5647 0.764208 41.2344C0.434063 40.9041 0.172238 40.5119 -0.00630769 40.0804C-0.184853 39.6488 -0.276621 39.1863 -0.276367 38.7193V3.27878ZM16.5667 15.9479H22.3288V18.8414C23.1605 17.178 25.2881 15.6809 28.4853 15.6809C34.6149 15.6809 36.0675 18.9942 36.0675 25.0735V36.3344H29.8644V26.4584C29.8644 22.9961 29.0327 21.0426 26.9206 21.0426C23.9902 21.0426 22.7717 23.1489 22.7717 26.4584V36.3344H16.5667V15.9479ZM5.92858 36.0695H12.1335V15.6809H5.92858V36.0675V36.0695ZM13.0213 9.03112C13.033 9.56239 12.9385 10.0907 12.7433 10.5849C12.548 11.0791 12.2561 11.5294 11.8845 11.9093C11.5129 12.2892 11.0691 12.591 10.5793 12.797C10.0895 13.0031 9.56343 13.1092 9.03202 13.1092C8.50062 13.1092 7.97457 13.0031 7.48474 12.797C6.99491 12.591 6.55118 12.2892 6.17958 11.9093C5.80798 11.5294 5.516 11.0791 5.32078 10.5849C5.12555 10.0907 5.03101 9.56239 5.04271 9.03112C5.06568 7.9883 5.49606 6.99593 6.2417 6.26653C6.98734 5.53713 7.98895 5.12869 9.03202 5.12869C10.0751 5.12869 11.0767 5.53713 11.8223 6.26653C12.568 6.99593 12.9984 7.9883 13.0213 9.03112Z" fill="#F2F2F2"/>
</g>
<defs>
<clipPath id="clip0_7_1105">
<rect width="42" height="42" rx="4" fill="white"/>
</clipPath>
</defs>
</svg>
